<?xml version="1.0" encoding="UTF-8" standalone="no"?>
<!DOCTYPE svg PUBLIC "-//W3C//DTD SVG 1.1//EN"
 "http://www.w3.org/Graphics/SVG/1.1/DTD/svg11.dtd">
<!-- Generated by graphviz version 2.50.0 (0)
 -->
<!-- Pages: 1 -->
<svg width="720pt" height="118pt"
 viewBox="0.00 0.00 720.00 118.40" xmlns="http://www.w3.org/2000/svg" xmlns:xlink="http://www.w3.org/1999/xlink">
<g id="graph0" class="graph" transform="scale(0.58 0.58) rotate(0) translate(4 199)">
<polygon fill="white" stroke="transparent" points="-4,4 -4,-199 1230.45,-199 1230.45,4 -4,4"/>
<!-- Start -->
<g id="node1" class="node">
<title>Start</title>
<ellipse fill="none" stroke="black" cx="133.24" cy="-97.5" rx="133.48" ry="18"/>
<text text-anchor="middle" x="133.24" y="-93.8" font-family="Times,serif" font-size="14.00">Start: Input Basket &amp; CustomerID</text>
</g>
<!-- Seg -->
<g id="node2" class="node">
<title>Seg</title>
<polygon fill="none" stroke="black" points="465.48,-115.5 303.48,-115.5 303.48,-79.5 465.48,-79.5 465.48,-115.5"/>
<text text-anchor="middle" x="384.48" y="-93.8" font-family="Times,serif" font-size="14.00">Look up Customer Cluster</text>
</g>
<!-- Start&#45;&gt;Seg -->
<g id="edge1" class="edge">
<title>Start&#45;&gt;Seg</title>
<path fill="none" stroke="black" d="M266.52,-97.5C275.56,-97.5 284.55,-97.5 293.3,-97.5"/>
<polygon fill="black" stroke="black" points="293.44,-101 303.44,-97.5 293.44,-94 293.44,-101"/>
</g>
<!-- VIP -->
<g id="node3" class="node">
<title>VIP</title>
<polygon fill="lightblue" stroke="lightblue" points="890.48,-195 666.48,-195 666.48,-142 890.48,-142 890.48,-195"/>
<text text-anchor="middle" x="778.48" y="-179.8" font-family="Times,serif" font-size="14.00">Cluster: VIP</text>
<text text-anchor="middle" x="778.48" y="-164.8" font-family="Times,serif" font-size="14.00">Weight: Content 0.7, Co&#45;purchase 0.3</text>
<text text-anchor="middle" x="778.48" y="-149.8" font-family="Times,serif" font-size="14.00">Boost high&#45;price items</text>
</g>
<!-- Seg&#45;&gt;VIP -->
<g id="edge2" class="edge">
<title>Seg&#45;&gt;VIP</title>
<path fill="none" stroke="black" d="M465.68,-113.16C471.7,-114.3 477.68,-115.43 483.48,-116.5 540.21,-127.02 603.2,-138.22 656.28,-147.52"/>
<polygon fill="black" stroke="black" points="655.96,-151.02 666.41,-149.3 657.16,-144.13 655.96,-151.02"/>
<text text-anchor="middle" x="565.98" y="-148.3" font-family="Times,serif" font-size="14.00">VIP</text>
</g>
<!-- Churn -->
<g id="node4" class="node">
<title>Churn</title>
<polygon fill="lightpink" stroke="lightpink" points="890.48,-124 666.48,-124 666.48,-71 890.48,-71 890.48,-124"/>
<text text-anchor="middle" x="778.48" y="-108.8" font-family="Times,serif" font-size="14.00">Cluster: Churn&#45;Risk</text>
<text text-anchor="middle" x="778.48" y="-93.8" font-family="Times,serif" font-size="14.00">Weight: Content 0.3, Co&#45;purchase 0.7</text>
<text text-anchor="middle" x="778.48" y="-78.8" font-family="Times,serif" font-size="14.00">Boost low&#45;price, popular items</text>
</g>
<!-- Seg&#45;&gt;Churn -->
<g id="edge3" class="edge">
<title>Seg&#45;&gt;Churn</title>
<path fill="none" stroke="black" d="M465.75,-97.5C520.49,-97.5 594,-97.5 655.89,-97.5"/>
<polygon fill="black" stroke="black" points="656.11,-101 666.11,-97.5 656.11,-94 656.11,-101"/>
<text text-anchor="middle" x="565.98" y="-101.3" font-family="Times,serif" font-size="14.00">Churn&#45;Risk</text>
</g>
<!-- Mid -->
<g id="node5" class="node">
<title>Mid</title>
<polygon fill="lightgrey" stroke="lightgrey" points="890.48,-53 666.48,-53 666.48,0 890.48,0 890.48,-53"/>
<text text-anchor="middle" x="778.48" y="-37.8" font-family="Times,serif" font-size="14.00">Cluster: Mid&#45;Value (Others)</text>
<text text-anchor="middle" x="778.48" y="-22.8" font-family="Times,serif" font-size="14.00">Weight: Content 0.5, Co&#45;purchase 0.5</text>
<text text-anchor="middle" x="778.48" y="-7.8" font-family="Times,serif" font-size="14.00">Balanced strategy</text>
</g>
<!-- Seg&#45;&gt;Mid -->
<g id="edge4" class="edge">
<title>Seg&#45;&gt;Mid</title>
<path fill="none" stroke="black" d="M465.68,-81.84C471.7,-80.7 477.68,-79.57 483.48,-78.5 540.21,-67.98 603.2,-56.78 656.28,-47.48"/>
<polygon fill="black" stroke="black" points="657.16,-50.87 666.41,-45.7 655.96,-43.98 657.16,-50.87"/>
<text text-anchor="middle" x="565.98" y="-82.3" font-family="Times,serif" font-size="14.00">Regular / Frequent Mid&#45;Value</text>
</g>
<!-- Output -->
<g id="node6" class="node">
<title>Output</title>
<ellipse fill="none" stroke="black" cx="1076.96" cy="-97.5" rx="149.47" ry="18"/>
<text text-anchor="middle" x="1076.96" y="-93.8" font-family="Times,serif" font-size="14.00">Output Top&#45;N Recommended Products</text>
</g>
<!-- VIP&#45;&gt;Output -->
<g id="edge5" class="edge">
<title>VIP&#45;&gt;Output</title>
<path fill="none" stroke="black" d="M890.3,-141.96C926.37,-133.32 965.61,-123.93 998.68,-116.01"/>
<polygon fill="black" stroke="black" points="999.82,-119.33 1008.73,-113.6 998.19,-112.53 999.82,-119.33"/>
</g>
<!-- Churn&#45;&gt;Output -->
<g id="edge6" class="edge">
<title>Churn&#45;&gt;Output</title>
<path fill="none" stroke="black" d="M890.72,-97.5C899.44,-97.5 908.33,-97.5 917.28,-97.5"/>
<polygon fill="black" stroke="black" points="917.4,-101 927.4,-97.5 917.4,-94 917.4,-101"/>
</g>
<!-- Mid&#45;&gt;Output -->
<g id="edge7" class="edge">
<title>Mid&#45;&gt;Output</title>
<path fill="none" stroke="black" d="M890.3,-53.04C926.37,-61.68 965.61,-71.07 998.68,-78.99"/>
<polygon fill="black" stroke="black" points="998.19,-82.47 1008.73,-81.4 999.82,-75.67 998.19,-82.47"/>
</g>
</g>
</svg>
