<?xml version="1.0" encoding="UTF-8" standalone="no"?>
<!DOCTYPE svg PUBLIC "-//W3C//DTD SVG 1.1//EN"
 "http://www.w3.org/Graphics/SVG/1.1/DTD/svg11.dtd">
<!-- Generated by graphviz version 2.50.0 (0)
 -->
<!-- Pages: 1 -->
<svg width="792pt" height="169pt"
 viewBox="0.00 0.00 792.00 169.35" xmlns="http://www.w3.org/2000/svg" xmlns:xlink="http://www.w3.org/1999/xlink">
<g id="graph0" class="graph" transform="scale(0.58 0.58) rotate(0) translate(4 289)">
<polygon fill="white" stroke="transparent" points="-4,4 -4,-289 1366.25,-289 1366.25,4 -4,4"/>
<!-- Start -->
<g id="node1" class="node">
<title>Start</title>
<ellipse fill="none" stroke="black" cx="124.14" cy="-142.5" rx="124.28" ry="18"/>
<text text-anchor="middle" x="124.14" y="-138.8" font-family="Times,serif" font-size="14.00">Start: Basket = {101, 102, 203}</text>
</g>
<!-- Calc -->
<g id="node2" class="node">
<title>Calc</title>
<polygon fill="none" stroke="black" points="511.28,-161.5 284.28,-161.5 284.28,-123.5 511.28,-123.5 511.28,-161.5"/>
<text text-anchor="middle" x="397.78" y="-146.3" font-family="Times,serif" font-size="14.00">For each product:</text>
<text text-anchor="middle" x="397.78" y="-131.3" font-family="Times,serif" font-size="14.00">Compute hybrid similarity to all items</text>
</g>
<!-- Start&#45;&gt;Calc -->
<g id="edge1" class="edge">
<title>Start&#45;&gt;Calc</title>
<path fill="none" stroke="black" d="M248.64,-142.5C257.01,-142.5 265.44,-142.5 273.81,-142.5"/>
<polygon fill="black" stroke="black" points="273.97,-146 283.97,-142.5 273.97,-139 273.97,-146"/>
</g>
<!-- P101 -->
<g id="node3" class="node">
<title>P101</title>
<polygon fill="lightblue" stroke="lightblue" points="678.28,-285 547.28,-285 547.28,-202 678.28,-202 678.28,-285"/>
<text text-anchor="middle" x="612.78" y="-269.8" font-family="Times,serif" font-size="14.00">Product 101</text>
<text text-anchor="middle" x="612.78" y="-254.8" font-family="Times,serif" font-size="14.00">→ Hybrid Similarity</text>
<text text-anchor="middle" x="612.78" y="-239.8" font-family="Times,serif" font-size="14.00">201: 0.902</text>
<text text-anchor="middle" x="612.78" y="-224.8" font-family="Times,serif" font-size="14.00">202: 0.678</text>
<text text-anchor="middle" x="612.78" y="-209.8" font-family="Times,serif" font-size="14.00">205: 0.455</text>
</g>
<!-- Calc&#45;&gt;P101 -->
<g id="edge2" class="edge">
<title>Calc&#45;&gt;P101</title>
<path fill="none" stroke="black" d="M439.09,-161.62C466.87,-174.79 504.61,-192.68 537.72,-208.38"/>
<polygon fill="black" stroke="black" points="536.39,-211.63 546.92,-212.75 539.39,-205.3 536.39,-211.63"/>
</g>
<!-- P102 -->
<g id="node4" class="node">
<title>P102</title>
<polygon fill="lightgreen" stroke="lightgreen" points="678.28,-184 547.28,-184 547.28,-101 678.28,-101 678.28,-184"/>
<text text-anchor="middle" x="612.78" y="-168.8" font-family="Times,serif" font-size="14.00">Product 102</text>
<text text-anchor="middle" x="612.78" y="-153.8" font-family="Times,serif" font-size="14.00">→ Hybrid Similarity</text>
<text text-anchor="middle" x="612.78" y="-138.8" font-family="Times,serif" font-size="14.00">201: 0.843</text>
<text text-anchor="middle" x="612.78" y="-123.8" font-family="Times,serif" font-size="14.00">208: 0.611</text>
<text text-anchor="middle" x="612.78" y="-108.8" font-family="Times,serif" font-size="14.00">209: 0.423</text>
</g>
<!-- Calc&#45;&gt;P102 -->
<g id="edge3" class="edge">
<title>Calc&#45;&gt;P102</title>
<path fill="none" stroke="black" d="M511.52,-142.5C520.08,-142.5 528.58,-142.5 536.81,-142.5"/>
<polygon fill="black" stroke="black" points="537.07,-146 547.07,-142.5 537.07,-139 537.07,-146"/>
</g>
<!-- P203 -->
<g id="node5" class="node">
<title>P203</title>
<polygon fill="lightpink" stroke="lightpink" points="678.28,-83 547.28,-83 547.28,0 678.28,0 678.28,-83"/>
<text text-anchor="middle" x="612.78" y="-67.8" font-family="Times,serif" font-size="14.00">Product 203</text>
<text text-anchor="middle" x="612.78" y="-52.8" font-family="Times,serif" font-size="14.00">→ Hybrid Similarity</text>
<text text-anchor="middle" x="612.78" y="-37.8" font-family="Times,serif" font-size="14.00">201: 0.791</text>
<text text-anchor="middle" x="612.78" y="-22.8" font-family="Times,serif" font-size="14.00">202: 0.603</text>
<text text-anchor="middle" x="612.78" y="-7.8" font-family="Times,serif" font-size="14.00">210: 0.512</text>
</g>
<!-- Calc&#45;&gt;P203 -->
<g id="edge4" class="edge">
<title>Calc&#45;&gt;P203</title>
<path fill="none" stroke="black" d="M439.09,-123.38C466.87,-110.21 504.61,-92.32 537.72,-76.62"/>
<polygon fill="black" stroke="black" points="539.39,-79.7 546.92,-72.25 536.39,-73.37 539.39,-79.7"/>
</g>
<!-- Sum -->
<g id="node6" class="node">
<title>Sum</title>
<polygon fill="none" stroke="black" points="844.28,-161.5 714.28,-161.5 714.28,-123.5 844.28,-123.5 844.28,-161.5"/>
<text text-anchor="middle" x="779.28" y="-146.3" font-family="Times,serif" font-size="14.00">Sum Hybrid Scores</text>
<text text-anchor="middle" x="779.28" y="-131.3" font-family="Times,serif" font-size="14.00">across 101, 102, 203</text>
</g>
<!-- P101&#45;&gt;Sum -->
<g id="edge5" class="edge">
<title>P101&#45;&gt;Sum</title>
<path fill="none" stroke="black" d="M678.32,-203.87C698.59,-191.43 720.36,-178.06 738.39,-166.99"/>
<polygon fill="black" stroke="black" points="740.23,-169.97 746.92,-161.75 736.57,-164 740.23,-169.97"/>
</g>
<!-- P102&#45;&gt;Sum -->
<g id="edge6" class="edge">
<title>P102&#45;&gt;Sum</title>
<path fill="none" stroke="black" d="M678.32,-142.5C686.8,-142.5 695.53,-142.5 704.15,-142.5"/>
<polygon fill="black" stroke="black" points="704.19,-146 714.19,-142.5 704.19,-139 704.19,-146"/>
</g>
<!-- P203&#45;&gt;Sum -->
<g id="edge7" class="edge">
<title>P203&#45;&gt;Sum</title>
<path fill="none" stroke="black" d="M678.32,-81.13C698.59,-93.57 720.36,-106.94 738.39,-118.01"/>
<polygon fill="black" stroke="black" points="736.57,-121 746.92,-123.25 740.23,-115.03 736.57,-121"/>
</g>
<!-- Rank -->
<g id="node7" class="node">
<title>Rank</title>
<polygon fill="none" stroke="black" points="1027.28,-161.5 880.28,-161.5 880.28,-123.5 1027.28,-123.5 1027.28,-161.5"/>
<text text-anchor="middle" x="953.78" y="-146.3" font-family="Times,serif" font-size="14.00">Rank Products</text>
<text text-anchor="middle" x="953.78" y="-131.3" font-family="Times,serif" font-size="14.00">(exclude 101, 102, 203)</text>
</g>
<!-- Sum&#45;&gt;Rank -->
<g id="edge8" class="edge">
<title>Sum&#45;&gt;Rank</title>
<path fill="none" stroke="black" d="M844.51,-142.5C852.84,-142.5 861.47,-142.5 870.04,-142.5"/>
<polygon fill="black" stroke="black" points="870.07,-146 880.07,-142.5 870.07,-139 870.07,-146"/>
</g>
<!-- Output -->
<g id="node8" class="node">
<title>Output</title>
<ellipse fill="none" stroke="black" cx="1212.76" cy="-142.5" rx="149.47" ry="18"/>
<text text-anchor="middle" x="1212.76" y="-138.8" font-family="Times,serif" font-size="14.00">Output Top&#45;N Recommended Products</text>
</g>
<!-- Rank&#45;&gt;Output -->
<g id="edge9" class="edge">
<title>Rank&#45;&gt;Output</title>
<path fill="none" stroke="black" d="M1027.39,-142.5C1035.5,-142.5 1043.97,-142.5 1052.65,-142.5"/>
<polygon fill="black" stroke="black" points="1052.91,-146 1062.91,-142.5 1052.91,-139 1052.91,-146"/>
</g>
</g>
</svg>
