<?xml version="1.0" encoding="UTF-8" standalone="no"?>
<!DOCTYPE svg PUBLIC "-//W3C//DTD SVG 1.1//EN"
 "http://www.w3.org/Graphics/SVG/1.1/DTD/svg11.dtd">
<!-- Generated by graphviz version 2.50.0 (0)
 -->
<!-- Pages: 1 -->
<svg width="720pt" height="56pt"
 viewBox="0.00 0.00 720.00 55.72" xmlns="http://www.w3.org/2000/svg" xmlns:xlink="http://www.w3.org/1999/xlink">
<g id="graph0" class="graph" transform="scale(0.49 0.49) rotate(0) translate(4 110)">
<polygon fill="white" stroke="transparent" points="-4,4 -4,-110 1468.96,-110 1468.96,4 -4,4"/>
<!-- Target -->
<g id="node1" class="node">
<title>Target</title>
<ellipse fill="lightblue" stroke="lightblue" cx="115.26" cy="-53" rx="115.02" ry="37.45"/>
<text text-anchor="middle" x="115.26" y="-64.3" font-family="Times,serif" font-size="14.00">Target Product:</text>
<text text-anchor="middle" x="115.26" y="-49.3" font-family="Times,serif" font-size="14.00">22919</text>
<text text-anchor="middle" x="115.26" y="-34.3" font-family="Times,serif" font-size="14.00">(HERB MARKER MINT)</text>
</g>
<!-- ContentSimSeries -->
<g id="node2" class="node">
<title>ContentSimSeries</title>
<polygon fill="lightgreen" stroke="lightgreen" points="453.52,-100 266.52,-100 266.52,-62 453.52,-62 453.52,-100"/>
<text text-anchor="middle" x="360.02" y="-84.8" font-family="Times,serif" font-size="14.00">Content Similarity Series</text>
<text text-anchor="middle" x="360.02" y="-69.8" font-family="Times,serif" font-size="14.00">{22920: 0.62, 22916: 0.61, ...}</text>
</g>
<!-- Target&#45;&gt;ContentSimSeries -->
<g id="edge1" class="edge">
<title>Target&#45;&gt;ContentSimSeries</title>
<path fill="none" stroke="black" d="M224.15,-65.44C234.8,-66.67 245.59,-67.92 256.19,-69.14"/>
<polygon fill="black" stroke="black" points="255.95,-72.64 266.28,-70.3 256.75,-65.68 255.95,-72.64"/>
</g>
<!-- CoPurchaseSimSeries -->
<g id="node3" class="node">
<title>CoPurchaseSimSeries</title>
<polygon fill="lightyellow" stroke="lightyellow" points="453.52,-44 266.52,-44 266.52,-6 453.52,-6 453.52,-44"/>
<text text-anchor="middle" x="360.02" y="-28.8" font-family="Times,serif" font-size="14.00">Co&#45;purchase Similarity Series</text>
<text text-anchor="middle" x="360.02" y="-13.8" font-family="Times,serif" font-size="14.00">{22920: 0.86, 22916: 0.86, ...}</text>
</g>
<!-- Target&#45;&gt;CoPurchaseSimSeries -->
<g id="edge2" class="edge">
<title>Target&#45;&gt;CoPurchaseSimSeries</title>
<path fill="none" stroke="black" d="M224.15,-40.56C234.8,-39.33 245.59,-38.08 256.19,-36.86"/>
<polygon fill="black" stroke="black" points="256.75,-40.32 266.28,-35.7 255.95,-33.36 256.75,-40.32"/>
</g>
<!-- Weights -->
<g id="node4" class="node">
<title>Weights</title>
<polygon fill="lightpink" stroke="lightpink" points="732.52,-106 489.52,-53 732.52,0 975.52,-53 732.52,-106"/>
<text text-anchor="middle" x="732.52" y="-64.3" font-family="Times,serif" font-size="14.00">Weighted Formula:</text>
<text text-anchor="middle" x="732.52" y="-49.3" font-family="Times,serif" font-size="14.00">Hybrid = α × Content + β × Co&#45;purchase</text>
<text text-anchor="middle" x="732.52" y="-34.3" font-family="Times,serif" font-size="14.00">(α = 0.5, β = 0.5)</text>
</g>
<!-- ContentSimSeries&#45;&gt;Weights -->
<g id="edge3" class="edge">
<title>ContentSimSeries&#45;&gt;Weights</title>
<path fill="none" stroke="black" d="M453.55,-74.01C480.42,-71.98 510.78,-69.68 541.33,-67.37"/>
<polygon fill="black" stroke="black" points="541.98,-70.83 551.69,-66.59 541.46,-63.85 541.98,-70.83"/>
</g>
<!-- CoPurchaseSimSeries&#45;&gt;Weights -->
<g id="edge4" class="edge">
<title>CoPurchaseSimSeries&#45;&gt;Weights</title>
<path fill="none" stroke="black" d="M453.55,-31.99C480.42,-34.02 510.78,-36.32 541.33,-38.63"/>
<polygon fill="black" stroke="black" points="541.46,-42.15 551.69,-39.41 541.98,-35.17 541.46,-42.15"/>
</g>
<!-- HybridScore -->
<g id="node5" class="node">
<title>HybridScore</title>
<polygon fill="lightgray" stroke="lightgray" points="1205.52,-72 1011.52,-72 1011.52,-34 1205.52,-34 1205.52,-72"/>
<text text-anchor="middle" x="1108.52" y="-56.8" font-family="Times,serif" font-size="14.00">Hybrid Score Series</text>
<text text-anchor="middle" x="1108.52" y="-41.8" font-family="Times,serif" font-size="14.00">{22920: 0.74, 22916: 0.735, ...}</text>
</g>
<!-- Weights&#45;&gt;HybridScore -->
<g id="edge5" class="edge">
<title>Weights&#45;&gt;HybridScore</title>
<path fill="none" stroke="black" d="M975.66,-53C984.44,-53 993.05,-53 1001.39,-53"/>
<polygon fill="black" stroke="black" points="1001.43,-56.5 1011.43,-53 1001.43,-49.5 1001.43,-56.5"/>
</g>
<!-- Ranking -->
<g id="node6" class="node">
<title>Ranking</title>
<ellipse fill="lightblue" stroke="lightblue" cx="1353.24" cy="-53" rx="111.95" ry="26.74"/>
<text text-anchor="middle" x="1353.24" y="-56.8" font-family="Times,serif" font-size="14.00">Top&#45;N Recommendations</text>
<text text-anchor="middle" x="1353.24" y="-41.8" font-family="Times,serif" font-size="14.00">Sorted by Hybrid Score</text>
</g>
<!-- HybridScore&#45;&gt;Ranking -->
<g id="edge6" class="edge">
<title>HybridScore&#45;&gt;Ranking</title>
<path fill="none" stroke="black" d="M1205.8,-53C1214.17,-53 1222.71,-53 1231.24,-53"/>
<polygon fill="black" stroke="black" points="1231.25,-56.5 1241.25,-53 1231.25,-49.5 1231.25,-56.5"/>
</g>
</g>
</svg>
