<?xml version="1.0" encoding="UTF-8" standalone="no"?>
<!DOCTYPE svg PUBLIC "-//W3C//DTD SVG 1.1//EN"
 "http://www.w3.org/Graphics/SVG/1.1/DTD/svg11.dtd">
<!-- Generated by graphviz version 2.50.0 (0)
 -->
<!-- Pages: 1 -->
<svg width="792pt" height="107pt"
 viewBox="0.00 0.00 792.00 106.55" xmlns="http://www.w3.org/2000/svg" xmlns:xlink="http://www.w3.org/1999/xlink">
<g id="graph0" class="graph" transform="scale(0.43 0.43) rotate(0) translate(4 244)">
<polygon fill="white" stroke="transparent" points="-4,4 -4,-244 1839.49,-244 1839.49,4 -4,4"/>
<!-- Start -->
<g id="node1" class="node">
<title>Start</title>
<ellipse fill="none" stroke="black" cx="149.91" cy="-120" rx="149.81" ry="26.74"/>
<text text-anchor="middle" x="149.91" y="-123.8" font-family="Times,serif" font-size="14.00">Start: Input Basket {101, 102, 203}</text>
<text text-anchor="middle" x="149.91" y="-108.8" font-family="Times,serif" font-size="14.00">CustomerID = 12345</text>
</g>
<!-- Cluster -->
<g id="node2" class="node">
<title>Cluster</title>
<polygon fill="none" stroke="black" points="494.81,-138 336.81,-138 336.81,-102 494.81,-102 494.81,-138"/>
<text text-anchor="middle" x="415.81" y="-116.3" font-family="Times,serif" font-size="14.00">Lookup Customer Cluster</text>
</g>
<!-- Start&#45;&gt;Cluster -->
<g id="edge1" class="edge">
<title>Start&#45;&gt;Cluster</title>
<path fill="none" stroke="black" d="M299.83,-120C308.9,-120 317.87,-120 326.55,-120"/>
<polygon fill="black" stroke="black" points="326.6,-123.5 336.6,-120 326.6,-116.5 326.6,-123.5"/>
</g>
<!-- VIP -->
<g id="node3" class="node">
<title>VIP</title>
<polygon fill="lightblue" stroke="lightblue" points="768.31,-217.5 627.31,-217.5 627.31,-164.5 768.31,-164.5 768.31,-217.5"/>
<text text-anchor="middle" x="697.81" y="-202.3" font-family="Times,serif" font-size="14.00">Cluster: VIP</text>
<text text-anchor="middle" x="697.81" y="-187.3" font-family="Times,serif" font-size="14.00">Weight: α=0.7, β=0.3</text>
<text text-anchor="middle" x="697.81" y="-172.3" font-family="Times,serif" font-size="14.00">Boost high&#45;price items</text>
</g>
<!-- Cluster&#45;&gt;VIP -->
<g id="edge2" class="edge">
<title>Cluster&#45;&gt;VIP</title>
<path fill="none" stroke="black" d="M487.83,-138.01C527.2,-147.99 576.26,-160.43 616.96,-170.75"/>
<polygon fill="black" stroke="black" points="616.29,-174.19 626.84,-173.26 618.01,-167.41 616.29,-174.19"/>
<text text-anchor="middle" x="550.81" y="-164.8" font-family="Times,serif" font-size="14.00">if VIP</text>
</g>
<!-- Churn -->
<g id="node4" class="node">
<title>Churn</title>
<polygon fill="lightpink" stroke="lightpink" points="788.81,-146.5 606.81,-146.5 606.81,-93.5 788.81,-93.5 788.81,-146.5"/>
<text text-anchor="middle" x="697.81" y="-131.3" font-family="Times,serif" font-size="14.00">Cluster: Churn&#45;Risk</text>
<text text-anchor="middle" x="697.81" y="-116.3" font-family="Times,serif" font-size="14.00">Weight: α=0.3, β=0.7</text>
<text text-anchor="middle" x="697.81" y="-101.3" font-family="Times,serif" font-size="14.00">Boost low&#45;price popular items</text>
</g>
<!-- Cluster&#45;&gt;Churn -->
<g id="edge3" class="edge">
<title>Cluster&#45;&gt;Churn</title>
<path fill="none" stroke="black" d="M495.18,-120C526.56,-120 563.09,-120 596.38,-120"/>
<polygon fill="black" stroke="black" points="596.6,-123.5 606.6,-120 596.6,-116.5 596.6,-123.5"/>
<text text-anchor="middle" x="550.81" y="-123.8" font-family="Times,serif" font-size="14.00">if Churn&#45;Risk</text>
</g>
<!-- Mid -->
<g id="node5" class="node">
<title>Mid</title>
<polygon fill="lightgrey" stroke="lightgrey" points="766.31,-75.5 629.31,-75.5 629.31,-22.5 766.31,-22.5 766.31,-75.5"/>
<text text-anchor="middle" x="697.81" y="-60.3" font-family="Times,serif" font-size="14.00">Cluster: Mid&#45;Value</text>
<text text-anchor="middle" x="697.81" y="-45.3" font-family="Times,serif" font-size="14.00">Weight: α=0.5, β=0.5</text>
<text text-anchor="middle" x="697.81" y="-30.3" font-family="Times,serif" font-size="14.00">Balanced strategy</text>
</g>
<!-- Cluster&#45;&gt;Mid -->
<g id="edge4" class="edge">
<title>Cluster&#45;&gt;Mid</title>
<path fill="none" stroke="black" d="M487.83,-101.99C528.03,-91.8 578.34,-79.04 619.53,-68.6"/>
<polygon fill="black" stroke="black" points="620.41,-71.98 629.25,-66.13 618.69,-65.2 620.41,-71.98"/>
<text text-anchor="middle" x="550.81" y="-98.8" font-family="Times,serif" font-size="14.00">else</text>
</g>
<!-- Calc -->
<g id="node6" class="node">
<title>Calc</title>
<polygon fill="none" stroke="black" points="1068.81,-139 825.81,-139 825.81,-101 1068.81,-101 1068.81,-139"/>
<text text-anchor="middle" x="947.31" y="-123.8" font-family="Times,serif" font-size="14.00">Compute Hybrid Similarity:</text>
<text text-anchor="middle" x="947.31" y="-108.8" font-family="Times,serif" font-size="14.00">Hybrid = α × Content + β × Co&#45;purchase</text>
</g>
<!-- VIP&#45;&gt;Calc -->
<g id="edge5" class="edge">
<title>VIP&#45;&gt;Calc</title>
<path fill="none" stroke="black" d="M768.41,-171.03C800.03,-161.96 837.52,-151.21 869.91,-141.92"/>
<polygon fill="black" stroke="black" points="871.14,-145.21 879.79,-139.08 869.21,-138.48 871.14,-145.21"/>
</g>
<!-- Churn&#45;&gt;Calc -->
<g id="edge6" class="edge">
<title>Churn&#45;&gt;Calc</title>
<path fill="none" stroke="black" d="M788.87,-120C797.5,-120 806.38,-120 815.3,-120"/>
<polygon fill="black" stroke="black" points="815.39,-123.5 825.39,-120 815.39,-116.5 815.39,-123.5"/>
</g>
<!-- Mid&#45;&gt;Calc -->
<g id="edge7" class="edge">
<title>Mid&#45;&gt;Calc</title>
<path fill="none" stroke="black" d="M766.44,-68.4C798.62,-77.63 837.22,-88.7 870.39,-98.22"/>
<polygon fill="black" stroke="black" points="869.47,-101.6 880.05,-100.99 871.4,-94.87 869.47,-101.6"/>
</g>
<!-- P101 -->
<g id="node7" class="node">
<title>P101</title>
<polygon fill="lightblue" stroke="lightblue" points="1188.81,-240 1105.81,-240 1105.81,-172 1188.81,-172 1188.81,-240"/>
<text text-anchor="middle" x="1147.31" y="-224.8" font-family="Times,serif" font-size="14.00">Product 101</text>
<text text-anchor="middle" x="1147.31" y="-209.8" font-family="Times,serif" font-size="14.00">201: 0.902</text>
<text text-anchor="middle" x="1147.31" y="-194.8" font-family="Times,serif" font-size="14.00">202: 0.678</text>
<text text-anchor="middle" x="1147.31" y="-179.8" font-family="Times,serif" font-size="14.00">205: 0.455</text>
</g>
<!-- Calc&#45;&gt;P101 -->
<g id="edge8" class="edge">
<title>Calc&#45;&gt;P101</title>
<path fill="none" stroke="black" d="M992.26,-139.09C1023.05,-152.46 1064.27,-170.37 1096.33,-184.29"/>
<polygon fill="black" stroke="black" points="1094.96,-187.51 1105.53,-188.29 1097.75,-181.09 1094.96,-187.51"/>
</g>
<!-- P102 -->
<g id="node8" class="node">
<title>P102</title>
<polygon fill="lightgreen" stroke="lightgreen" points="1188.81,-154 1105.81,-154 1105.81,-86 1188.81,-86 1188.81,-154"/>
<text text-anchor="middle" x="1147.31" y="-138.8" font-family="Times,serif" font-size="14.00">Product 102</text>
<text text-anchor="middle" x="1147.31" y="-123.8" font-family="Times,serif" font-size="14.00">201: 0.843</text>
<text text-anchor="middle" x="1147.31" y="-108.8" font-family="Times,serif" font-size="14.00">208: 0.611</text>
<text text-anchor="middle" x="1147.31" y="-93.8" font-family="Times,serif" font-size="14.00">209: 0.423</text>
</g>
<!-- Calc&#45;&gt;P102 -->
<g id="edge9" class="edge">
<title>Calc&#45;&gt;P102</title>
<path fill="none" stroke="black" d="M1068.91,-120C1078.11,-120 1087.04,-120 1095.38,-120"/>
<polygon fill="black" stroke="black" points="1095.59,-123.5 1105.59,-120 1095.59,-116.5 1095.59,-123.5"/>
</g>
<!-- P203 -->
<g id="node9" class="node">
<title>P203</title>
<polygon fill="lightpink" stroke="lightpink" points="1188.81,-68 1105.81,-68 1105.81,0 1188.81,0 1188.81,-68"/>
<text text-anchor="middle" x="1147.31" y="-52.8" font-family="Times,serif" font-size="14.00">Product 203</text>
<text text-anchor="middle" x="1147.31" y="-37.8" font-family="Times,serif" font-size="14.00">201: 0.791</text>
<text text-anchor="middle" x="1147.31" y="-22.8" font-family="Times,serif" font-size="14.00">202: 0.603</text>
<text text-anchor="middle" x="1147.31" y="-7.8" font-family="Times,serif" font-size="14.00">210: 0.512</text>
</g>
<!-- Calc&#45;&gt;P203 -->
<g id="edge10" class="edge">
<title>Calc&#45;&gt;P203</title>
<path fill="none" stroke="black" d="M992.26,-100.91C1023.05,-87.54 1064.27,-69.63 1096.33,-55.71"/>
<polygon fill="black" stroke="black" points="1097.75,-58.91 1105.53,-51.71 1094.96,-52.49 1097.75,-58.91"/>
</g>
<!-- Sum -->
<g id="node10" class="node">
<title>Sum</title>
<polygon fill="none" stroke="black" points="1355.81,-139 1225.81,-139 1225.81,-101 1355.81,-101 1355.81,-139"/>
<text text-anchor="middle" x="1290.81" y="-123.8" font-family="Times,serif" font-size="14.00">Sum hybrid scores</text>
<text text-anchor="middle" x="1290.81" y="-108.8" font-family="Times,serif" font-size="14.00">across 101, 102, 203</text>
</g>
<!-- P101&#45;&gt;Sum -->
<g id="edge11" class="edge">
<title>P101&#45;&gt;Sum</title>
<path fill="none" stroke="black" d="M1188.86,-181.36C1207.9,-169.79 1230.52,-156.04 1249.52,-144.49"/>
<polygon fill="black" stroke="black" points="1251.52,-147.37 1258.25,-139.18 1247.89,-141.39 1251.52,-147.37"/>
</g>
<!-- P102&#45;&gt;Sum -->
<g id="edge12" class="edge">
<title>P102&#45;&gt;Sum</title>
<path fill="none" stroke="black" d="M1188.86,-120C1197.32,-120 1206.48,-120 1215.72,-120"/>
<polygon fill="black" stroke="black" points="1215.75,-123.5 1225.75,-120 1215.75,-116.5 1215.75,-123.5"/>
</g>
<!-- P203&#45;&gt;Sum -->
<g id="edge13" class="edge">
<title>P203&#45;&gt;Sum</title>
<path fill="none" stroke="black" d="M1188.86,-58.64C1207.9,-70.21 1230.52,-83.96 1249.52,-95.51"/>
<polygon fill="black" stroke="black" points="1247.89,-98.61 1258.25,-100.82 1251.52,-92.63 1247.89,-98.61"/>
</g>
<!-- Rank -->
<g id="node11" class="node">
<title>Rank</title>
<polygon fill="none" stroke="black" points="1539.81,-139 1392.81,-139 1392.81,-101 1539.81,-101 1539.81,-139"/>
<text text-anchor="middle" x="1466.31" y="-123.8" font-family="Times,serif" font-size="14.00">Rank products</text>
<text text-anchor="middle" x="1466.31" y="-108.8" font-family="Times,serif" font-size="14.00">(exclude 101, 102, 203)</text>
</g>
<!-- Sum&#45;&gt;Rank -->
<g id="edge14" class="edge">
<title>Sum&#45;&gt;Rank</title>
<path fill="none" stroke="black" d="M1355.93,-120C1364.62,-120 1373.65,-120 1382.61,-120"/>
<polygon fill="black" stroke="black" points="1382.69,-123.5 1392.69,-120 1382.69,-116.5 1382.69,-123.5"/>
</g>
<!-- Output -->
<g id="node12" class="node">
<title>Output</title>
<ellipse fill="none" stroke="black" cx="1706.15" cy="-120" rx="129.18" ry="18"/>
<text text-anchor="middle" x="1706.15" y="-116.3" font-family="Times,serif" font-size="14.00">Output Top&#45;N Recommendations</text>
</g>
<!-- Rank&#45;&gt;Output -->
<g id="edge15" class="edge">
<title>Rank&#45;&gt;Output</title>
<path fill="none" stroke="black" d="M1539.97,-120C1548.59,-120 1557.61,-120 1566.78,-120"/>
<polygon fill="black" stroke="black" points="1566.78,-123.5 1576.78,-120 1566.78,-116.5 1566.78,-123.5"/>
</g>
</g>
</svg>
